<svg id="about" xmlns="http://www.w3.org/2000/svg" viewBox="0 0 74.37 64.87"><title>about-isd--reverse</title><g id="icon"><path d="M77.64,73.35V64.27h9.54V82.43H77.64ZM45.1,66.22l-2.52-1.38-2.24-1.22c-.52-.27-1-.53-1-.56l-.94-.52c-.46-.25-1.73-.93-2.81-1.53l-3-1.61-1.87-1-2.36-1.29-1.48-.8V50.84c0-3.69,0-5.48.1-5.52a.2.2,0,0,1,.21,0c.06,0,.43.26.82.47l3.13,1.71,6.18,3.37,2.57,1.4,2.16,1.18,2.29,1.26,1.56.86.44.24,1.39-.77L51,53.27l2.76-1.5L55.22,51l1.64-.9,1.92-1,5.55-3a15.83,15.83,0,0,1,1.43-.74s.08,2.35.08,5.53c0,5.18,0,5.53-.16,5.58l-1.43.76c-2.68,1.48-4.12,2.27-4.15,2.27s-.92.49-2,1.08L54.8,62.31c-1.94,1-2.29,1.23-4.12,2.24-2.24,1.25-4,2.17-4.24,2.28a5.14,5.14,0,0,1-1.34-.61Zm-27-2.44c-.11-.13-1.8-6.4-1.8-6.68a2.72,2.72,0,0,1,1-.36l3.9-1.06,1-.26,0-7.32,0-7.32-.59-.29c-.32-.16-1.87-1-3.44-1.84L13.33,36c-.28-.15-.51-.33-.51-.4s.95-.67,4.26-2.42c1-.53,2.79-1.49,4-2.14l3-1.61c1.14-.59,1.78-.94,5.8-3.1l3.89-2.09L37,22.51l3.65-2,4.67-2.49a4.84,4.84,0,0,1,1.07-.48c.11,0,1.46.68,3,1.51,3.24,1.75,4.37,2.36,5.81,3.12.87.46,5,2.68,7.58,4.08l1,.54,3.09,1.66,3.65,2,1.54.82,3,1.61,3.13,1.69a7.76,7.76,0,0,1,1.83,1.07c0,.08-1.73,1-5.15,2.84l-2.39,1.28-3.65,2-5.14,2.76L59.8,46.59l-4,2.13c-4.4,2.36-4.37,2.34-5.34,2.85l-2.41,1.3a17.21,17.21,0,0,1-1.66.83c-.17,0-.86-.36-5.43-2.83L36.4,48.41c-1.56-.83-5.86-3.14-6.17-3.32l-1.59-.85c-.73-.37-1.67-.88-2.11-1.12l-1.2-.64-.39-.21v9.89c0,5.44,0,9.91,0,9.93a7.38,7.38,0,0,1-.73.21l-2,.52-2.48.67-1.36.37a.25.25,0,0,1-.25-.08ZM47.87,37.16c2.43-.67,3-2.72,1.18-4s-5.39-.8-6.23.87a1.58,1.58,0,0,0-.15,1.36c.44,1.52,3,2.39,5.2,1.77ZM81.4,59.36A5.33,5.33,0,0,1,78.21,57,5.24,5.24,0,0,1,77.9,53a4.89,4.89,0,0,1,3.29-3,4.75,4.75,0,0,1,5.12,1.88,4.4,4.4,0,0,1,.85,2.43,4.54,4.54,0,0,1-1.42,3.73,4.79,4.79,0,0,1-2.37,1.31,3.87,3.87,0,0,1-2,0Z" transform="translate(-12.82 -17.57)"/></g></svg>