<?xml version="1.0" encoding="utf-8"?>
<!-- Generator: Adobe Illustrator 22.1.0, SVG Export Plug-In . SVG Version: 6.00 Build 0)  -->
<svg version="1.1" id="Layer_1" xmlns="http://www.w3.org/2000/svg" xmlns:xlink="http://www.w3.org/1999/xlink" x="0px" y="0px"
	 viewBox="0 0 100 100" style="enable-background:new 0 0 100 100;" xml:space="preserve">
<g id="XMLID_801_">
	<path id="XMLID_802_" d="M23.8,32.5H4.1c-0.9,0-1.6,0.7-1.6,1.6v63.2c0,0.9,0.7,1.6,1.6,1.6h19.7c0.9,0,1.6-0.7,1.6-1.6V34.1
		C25.4,33.2,24.7,32.5,23.8,32.5z"/>
	<path id="XMLID_803_" d="M14,1.1c-7.2,0-13,5.8-13,13c0,7.2,5.8,13,13,13c7.2,0,13-5.8,13-13C27,6.9,21.1,1.1,14,1.1z"/>
	<path id="XMLID_804_" d="M73.9,31c-7.9,0-13.7,3.4-17.3,7.3v-4.1c0-0.9-0.7-1.6-1.6-1.6H36.1c-0.9,0-1.6,0.7-1.6,1.6v63.2
		c0,0.9,0.7,1.6,1.6,1.6h19.6c0.9,0,1.6-0.7,1.6-1.6V66c0-10.5,2.9-14.6,10.2-14.6c8,0,8.6,6.6,8.6,15.2v30.7c0,0.9,0.7,1.6,1.6,1.6
		h19.6c0.9,0,1.6-0.7,1.6-1.6V62.6C99,47,96,31,73.9,31z"/>
</g>
</svg>
