<?xml version="1.0" encoding="UTF-8"?><!DOCTYPE svg PUBLIC "-//W3C//DTD SVG 1.1//EN" "http://www.w3.org/Graphics/SVG/1.1/DTD/svg11.dtd"><svg xmlns="http://www.w3.org/2000/svg" xmlns:xlink="http://www.w3.org/1999/xlink"><defs/><symbol id="about-isd--reverse" viewBox="0 0 74.37 64.87"><title>about-isd--reverse</title><g id="icon"><path d="M77.64,73.35V64.27h9.54V82.43H77.64ZM45.1,66.22l-2.52-1.38-2.24-1.22c-.52-.27-1-.53-1-.56l-.94-.52c-.46-.25-1.73-.93-2.81-1.53l-3-1.61-1.87-1-2.36-1.29-1.48-.8V50.84c0-3.69,0-5.48.1-5.52a.2.2,0,0,1,.21,0c.06,0,.43.26.82.47l3.13,1.71,6.18,3.37,2.57,1.4,2.16,1.18,2.29,1.26,1.56.86.44.24,1.39-.77L51,53.27l2.76-1.5L55.22,51l1.64-.9,1.92-1,5.55-3a15.83,15.83,0,0,1,1.43-.74s.08,2.35.08,5.53c0,5.18,0,5.53-.16,5.58l-1.43.76c-2.68,1.48-4.12,2.27-4.15,2.27s-.92.49-2,1.08L54.8,62.31c-1.94,1-2.29,1.23-4.12,2.24-2.24,1.25-4,2.17-4.24,2.28a5.14,5.14,0,0,1-1.34-.61Zm-27-2.44c-.11-.13-1.8-6.4-1.8-6.68a2.72,2.72,0,0,1,1-.36l3.9-1.06,1-.26,0-7.32,0-7.32-.59-.29c-.32-.16-1.87-1-3.44-1.84L13.33,36c-.28-.15-.51-.33-.51-.4s.95-.67,4.26-2.42c1-.53,2.79-1.49,4-2.14l3-1.61c1.14-.59,1.78-.94,5.8-3.1l3.89-2.09L37,22.51l3.65-2,4.67-2.49a4.84,4.84,0,0,1,1.07-.48c.11,0,1.46.68,3,1.51,3.24,1.75,4.37,2.36,5.81,3.12.87.46,5,2.68,7.58,4.08l1,.54,3.09,1.66,3.65,2,1.54.82,3,1.61,3.13,1.69a7.76,7.76,0,0,1,1.83,1.07c0,.08-1.73,1-5.15,2.84l-2.39,1.28-3.65,2-5.14,2.76L59.8,46.59l-4,2.13c-4.4,2.36-4.37,2.34-5.34,2.85l-2.41,1.3a17.21,17.21,0,0,1-1.66.83c-.17,0-.86-.36-5.43-2.83L36.4,48.41c-1.56-.83-5.86-3.14-6.17-3.32l-1.59-.85c-.73-.37-1.67-.88-2.11-1.12l-1.2-.64-.39-.21v9.89c0,5.44,0,9.91,0,9.93a7.38,7.38,0,0,1-.73.21l-2,.52-2.48.67-1.36.37a.25.25,0,0,1-.25-.08ZM47.87,37.16c2.43-.67,3-2.72,1.18-4s-5.39-.8-6.23.87a1.58,1.58,0,0,0-.15,1.36c.44,1.52,3,2.39,5.2,1.77ZM81.4,59.36A5.33,5.33,0,0,1,78.21,57,5.24,5.24,0,0,1,77.9,53a4.89,4.89,0,0,1,3.29-3,4.75,4.75,0,0,1,5.12,1.88,4.4,4.4,0,0,1,.85,2.43,4.54,4.54,0,0,1-1.42,3.73,4.79,4.79,0,0,1-2.37,1.31,3.87,3.87,0,0,1-2,0Z" transform="translate(-12.82 -17.57)"/></g></symbol><symbol id="about-isd" viewBox="0 0 95 95"><title>about-isd</title><path id="about-icon" d="M49,33.66c-1.81-1.24-5.21-.77-6,.85a1.54,1.54,0,0,0-.15,1.31c.43,1.47,2.88,2.3,5,1.71h0C50.22,36.88,50.81,34.9,49,33.66ZM97.5,50A47.53,47.53,0,1,0,85.74,81.27H76.63V63.73h9.22V81.14A47.3,47.3,0,0,0,97.5,50ZM65.07,56.1l-1.38.74c-2.58,1.43-4,2.18-4,2.18s-.88.48-1.92,1-2.48,1.37-3.2,1.75c-1.87,1-2.21,1.19-4,2.18-2.17,1.2-3.83,2.09-4.09,2.19a5,5,0,0,1-1.3-.58h0l-2.43-1.34c-.7-.38-1.67-.92-2.17-1.18s-1-.5-1-.54l-.9-.5L36,60.58,33.13,59l-1.81-1L29,56.79,27.61,56V50.74c0-3.56,0-5.29.09-5.33a.2.2,0,0,1,.21,0l.79.45,3,1.64,6,3.26,2.49,1.36,2.08,1.13,2.22,1.22c.59.34,1.27.71,1.51.84l.42.23,1.34-.75L50.9,53.1l2.67-1.45,1.4-.76L56.55,50l1.85-1,5.37-2.93c.72-.39,1.34-.71,1.38-.71s.08,2.27.08,5.34C65.23,55.71,65.22,56.05,65.07,56.1ZM74,38.79,71.7,40l-3.53,1.9-5,2.67-3.8,2-3.85,2C51.31,51,51.34,51,50.4,51.45l-2.33,1.26a13.63,13.63,0,0,1-1.61.8c-.16,0-.83-.35-5.24-2.73L36.79,48.4c-1.52-.8-5.66-3-6-3.21-.15-.09-.84-.46-1.54-.82l-2-1.08c-.42-.24-.94-.52-1.16-.62l-.38-.2V52c0,5.26,0,9.58,0,9.59a5.7,5.7,0,0,1-.7.21l-1.89.5-2.4.65-1.32.35a.22.22,0,0,1-.24-.07h0c-.1-.13-1.74-6.19-1.74-6.45a2.5,2.5,0,0,1,.93-.35l3.77-1,.95-.25,0-7.07,0-7.07-.57-.28L19.2,39l-4.7-2.54c-.28-.15-.5-.32-.5-.39s.92-.65,4.11-2.34L22,31.64l2.89-1.56c1.1-.57,1.72-.9,5.61-3l3.75-2,3.17-1.7,3.52-1.9c2-1,3.74-2,4.52-2.41a4.8,4.8,0,0,1,1-.46c.1,0,1.4.66,2.9,1.46,3.14,1.69,4.23,2.28,5.62,3L62.29,27l1,.53c.15.07,1.49.79,3,1.6L69.8,31l1.49.79,2.89,1.55,3,1.63a8.23,8.23,0,0,1,1.77,1C79,36.13,77.31,37.05,74,38.79ZM84.46,57.71A4.72,4.72,0,0,1,82.17,59a3.82,3.82,0,0,1-1.9,0h0a4.66,4.66,0,0,1-3.39-6.13,4.76,4.76,0,0,1,3.18-2.91A4.57,4.57,0,0,1,85,51.76a4.2,4.2,0,0,1,.83,2.34A4.39,4.39,0,0,1,84.46,57.71Z" transform="translate(-2.5 -2.5)"/></symbol><symbol id="admissions-icon" viewBox="0 0 100 100"><title>admissions-icon</title><g id="export"><path d="M98,0H2A2,2,0,0,0,0,2V98a2,2,0,0,0,2,2H98a2,2,0,0,0,2-2V2A2,2,0,0,0,98,0ZM94,92.88A1.12,1.12,0,0,1,92.88,94H7.12A1.12,1.12,0,0,1,6,92.88V7.12A1.12,1.12,0,0,1,7.12,6H92.88A1.12,1.12,0,0,1,94,7.12Z"/><path id="pen" d="M73,21.61V66h0L77.14,83.5,81.36,66h0V21.61Zm4.18,55.64L74.43,66h5.42ZM79.9,26.32H74.47V23.11H79.9Z"/><path id="lines" d="M18,26.5v5.66h42.4V26.5Zm0,43.82h42.4V64.66H18Zm0-19.08h42.4V45.58H18Z"/></g></symbol><symbol id="arrow--up" viewBox="0 0 100 100">
<polygon points="47.4,11 25.7,32.8 22,29 50,1 78,29 74.3,32.8 52.6,11 52.6,99 47.4,99 "/>
</symbol><symbol id="close-icon" viewBox="0 0 100 100">
	<line class="st0" x1="15.4" y1="15.4" x2="84.6" y2="84.6"/>
	<line class="st1" x1="1" y1="50" x2="99" y2="50"/>
	<line class="st0" x1="15.4" y1="84.6" x2="84.6" y2="15.4"/>

</symbol><symbol id="cta-arrow-head" viewBox="0 0 100 100">
	<title>Get started with ISD</title>
	<circle class="cta-arrow-head__circle" cx="49.7" cy="49.7" r="48"/>
	<path class="cta-arrow-head__arrow" d="M58,49.7L35.7,27.4l2.9-2.8l25.1,25.1L38.5,74.8L35.7,72L58,49.7z"/>
</symbol><symbol id="cta-arrow" viewBox="0 0 340.2 99">
	<title>Get started with ISD</title>
	<circle class="isd-cta-arrow__circle" cx="290.7" cy="49.5" r="48" style="fill:none;stroke:#fff;stroke-miterlimit:10;stroke-width:3px"/>
	<line class="isd-cta-arrow__line" y1="49.39" x2="265.98" y2="49.39" style="fill:none;stroke:#fff;stroke-miterlimit:10;stroke-width:3px"/>
	<path class="isd-cta-arrow__carat" d="M302,49.91,279.7,27.6l2.87-2.82L307.7,49.91,282.57,75l-2.82-2.82Z" transform="translate(0 -1.5)" style="fill:#efe921"/>
</symbol><symbol id="experience-heart" viewBox="0 0 956 951"><title>experience</title><g id="expr-heart"><path id="expr-heart-2" data-name="expr-heart" d="M873.05,121.13Q795.4,50,684.14,50,536.94,50,479,175.93,421.07,50,273.86,50,162.6,50,85,121.13,3.81,195.76,3.82,305.35C3.82,641.63,455.8,893,479,900c23.2-7,475.18-258.37,475.18-594.65Q954.18,195.75,873.05,121.13Z"/><g id="kids"><path d="M508.33,537.77a1.51,1.51,0,0,0,2-1.6c0-2.17,0-3-1.59-5.95s-2.91-7.85-4.36-11.33-.29-4.94-.58-9.3-2.83-23.09-6.68-34.27-6.83-15.11-6.83-17.29-12.05-36.31-16.41-45-15.25-18-19-19.61-5.66-2.47-5.66-2.47l.29-2.17a27.22,27.22,0,0,0,2.9.28c1,0,3.49-.43,2.76-3.77s-1-3.78.15-7.11,1.89-5.09,4.07-5.67,12.49-6.83,16-14.38,3.87-8.17,2.67-19.15c-1.19-10.78-2.36-12.85-4.25-18.95s-14.45-20.37-21.57-23.85S436.85,285.74,427.7,286s-13.48,1.2-14.5,1.93-.87-.29-2.47-1.16-2.47-.29-2.47-.29,1.6-1.46,1.16-2-2.46-.72-2.46-.72,1.45-1.17,1.45-1.75-1.89-1.16-2.33-.87a10.83,10.83,0,0,0,4.07-2.9c1-1.6,5.08-8.86,4.5-12.64s-1.94-8.61-4.27-9.62-23.2-2.94-24.18,6.53c-.71,6.87,1.06,12.06,1.64,13.07s5,2.8,6.77,4.4-.58,2.61,2.18,4.21-.15,1.89,1.74,2.62-3.63,1.16-.29,2.18-14.09,10.89-16,12.92-10.54,18.11-8.8,28.57,1.4,21.39,7.5,25.6,7.7,11.48,6.82,13.8-7.55,12.92-14.38,15.25S355,396,350.6,399.5s-19,18.74-21.5,36.31-7.26,42.41-10.89,51.85-3.77,10.9-5.95,16.7-5.52,19.32-7.56,23.54-6.24,3.34-3.48,6.24,4.07,4.21,4.07,4.21-5.52,7.55-8.28,11.47-9.73,13.07-9,18,5.38,11.34,6.68,12.49,2.91,1,3.49.15a11.93,11.93,0,0,0,1-2s2.18.29,2.61-.44a4.84,4.84,0,0,0,.44-2,4.66,4.66,0,0,0-.58-3.34,35,35,0,0,1-2.47-5.23s1.74-4.94,4.35-7a44.68,44.68,0,0,1,7-4.07s-.15,7.7-.88,9.73,1,7.7,2.76,7.12,3.34-4.8,3.34-6.68a45.34,45.34,0,0,1,2.47-10.46c1-2.47,2.47-8.13,2.32-9.88s3.06-1,5.67-3.05,6.25-1.59,5.23-4.35.73-3.2,0-6.68,6.24-6.54,6.39-10,10.89-20.47,11-26.58.14-4.21,2.32-11.18S360,454.4,360,454.4s10.31,33.84,10.31,37.62,4.94,18,3,25-4.35,6.39-2.61,8.57,2.9,2.47.87,4.07-3.34,1.3-3.34,3.05.44,4.5.44,5.23-15.26,16.7-21.79,25-23.82,36.46-28.76,41.4-7.4,9.88-9.15,12.78L285.82,655.7s-5.08,8.86-4.64,11-1.75,3.49-1.75,3.49-.87,5.81-3.34,8.42-3.77,4.79-4.65,5.66-3.63,3.35-5.51,3.78-9.59,8.43-12.35,10.17-14.67,10.9-17.87,12-7.55,6.54-6,11.91,10.61,7.56,19,6.69,17.86-3.34,20.47-5.23-1.3-2.33,6.54-3.2,18.74-.72,20.91-10.31.59-11-.43-13.22,15-22.36,17.72-26.28,4.36-5.23,8.86-11,28-30.79,34.13-35.72,26-24.4,35-27.3,28.61-6.25,37.91-4.22,19.9,6,35.3,15,50.68,31.52,57.94,37.62,15.54,19.32,18.89,22.36,20.62,19.18,21.64,22.37-1,2.18,1.3,4.36,2.47,3.05,3.49,4.21a12.23,12.23,0,0,1,1.74,2.9s-1.89,8.86.15,13.08,6.68,4.64,11,6.24,6.39,2.18,6.39,2.18,9.44,7.27,14.67,9,15.25-.3,18.59-2.19,8.27-12.78,1.45-17.28-11.91-5.51-13.22-7.12a88.58,88.58,0,0,1-5.95-7.84c-2.18-3.34-8.43-6.1-9.73-9.15a72.47,72.47,0,0,0-4.8-8.27s-18.3-25.28-21.78-33.7-13.36-20-23.24-32.24-28.9-33.27-29.63-34.57,2.76-3.34,4.07-7.85,3.48-11.32-.29-17.14S508.33,539.22,508.33,537.77Z"/><path id="girl" d="M622.45,217.53S602.52,222.6,599.67,229s-9.83,15.5-9.83,19.24-3.36,4.81-3.62,12.56S585,273.1,581.9,277.38s-1.2,5.87-3.28,6.77a40.65,40.65,0,0,0-5.34,3.2,5.64,5.64,0,0,1-4-2.49c-1.55-2.32-3.11-1.78-5.18-8a180.1,180.1,0,0,0-8.28-19.24c-2.41-5-2.41-2.13-3.28-8.55s.69-6.76-2.41-8.19a30.28,30.28,0,0,1-6-3.92s-.69-16-2.59-16.75a39.72,39.72,0,0,0-6.38-1.24s-4.31-2-1.55-8.73a47.5,47.5,0,0,0,3.62-16.39c0-3.2,3.28-7.3,6-6.24s7.24,1.08,6.21-1.42-1.21-3-2.93-3.57a15.41,15.41,0,0,0-3.8-.52s2.41.52,1.21-3.22-3.45-4.27-6.56-4.09a64.59,64.59,0,0,0-7.94,1.25s4.66-7.13,8.11-10.51,9.49-11.4,9-13.18-4.32-2.14-8.11,2.49-13.63,13-14.49,14.78a7.73,7.73,0,0,1-2.08,2.68s-2.76,1.42-5-3.57S506,153,503.4,150.19s-7.07-3.39-6.21-.54,5.7,6.95,8.11,11.76,6.38,15.68,6.38,16.92a98.12,98.12,0,0,1,.7,16.57c-.35,11-.18,20.13.69,22.27s1.38,3.38,1.38,3.38l-2.59,1.07s2.93,15.67,3.62,25.47-.34,12.29,3.62,18,5.18,10.15,7.94,16,15.7,30.81,15.87,32.77-5.52,1.79-2.24,8.73,10.7,11.23,6.38,16.57-9.83,8-11.56,4.1a16.7,16.7,0,0,1-1.55-7s-4.31,3.74-1.21,8.55a11.52,11.52,0,0,0,8.29,5.53c.69,0-5.87,4.27-4.49,7.12l1.38,2.85s-1.21-2.14.34-3.74,9-2.85,10-5.7,2.42,10.69-2.93,12.29-8.63,2.85-8.63,2.85,3.8,4.45,9,2.32,6.56-4.46,8.28-7.31,4.32-10.33,4.32-10.33a36.71,36.71,0,0,0,2.07,9.8c1.9,5.34,2.24,8,.17,9.79s4.66-1.07,4.66-5.69.86-1.25,3.28,1.95,7.42,4.81,7.42,4.81-3.63-2.67-4.32-6.23,3.8,2.32,4.32,2.67-.87-5-.87-6.06,2.76,5.17,3.45,9.27,7.08,16.21,7.08,27.43c0,11.87-6.56,30.84-8.8,39.9-2,7.89-4.14,28.33-1.9,35.27s-1,34-1.73,39.55-1.89,36.52-.51,46.14,5.17,33.31,4.66,40.61-3.8,38.84-3.8,46.14-.52,24.94,1.72,29-6,1.24-1.55,5.34,1.38,2.32,1.21,6.23-2.93,4.82-.52,8.2S565,729.85,564,732s-2.76,13.54,7.76,15.15,18.64-1.43,22.61-15.15,8.62-22.62,9-26.9,1-8.55,1-11.75-1.38,1.78,0-5.35-3.11-7,1.21-8.55,2.24-6.77,1.9-8.72,2.41-19.6,2.93-19.6.17-4.27,1-9.62,3.79-22.62,4.48-25.66,4.49-25.28,4.49-28.85,5-26.9,5-26.9,3.28,23.69,3.28,26.72,2.24,40.61,2.59,53.27-6.56,28.67-1.21,35.26-3.11,3.56-2.07,5.88-1.56,2.14-.17,5.88.86,5.88.51,8.2,3.11,22.09,4.66,27.07,12.94,24.58,16.22,27.08,26.22,6.77,29.16,0,1.38-11.23-2.59-14.79S666.44,726.28,664,722a73.21,73.21,0,0,1-5.52-13.36c-.86-3-1.72-9.8-1.2-11.4s1.38.71,2.58-3.57a13.87,13.87,0,0,0,.35-7.48c-.17-1.07,4.83-34.2,6.38-41.33s1-28.32,1-33,4-23.52,4-29,1.38-8.55,1.89-13.18,4.84-45.6,4.84-52S684.9,476,684.9,476s1.38-1.43,2.76-5.88,1-7.66.52-9.44,4.4-8.53,3-14.76.6-7.69-1.29-13.21-3.28-40.61-3.28-46.31,2.41-6.59,1.9-2.68l-.52,3.93s3.27-7.13,3.1-11.94-.17-7.84-.17-7.84,3.62,9.8,6.73,11.76,11.21,2.14,11.56-1.6a7.89,7.89,0,0,0-1.38-5.71s1,2.85,0,3.75-1.73,3.2-3.45.35-3.63-5.52-3.63-6.06,3.46,1.43,3.63,2,.69,1.07.69-2.13-1.21-1.25-1.9-5.35,4.66,4.1,7.42,6.06a19.45,19.45,0,0,0,5.17,2.67s-2.58-.89-5-6.05a15,15,0,0,1-1.38-9.27l.17-2s6.21,5.17,5,7.48-.18,2.32-.18,2.32,4.32-1.42,2.59-8-7.76-12.46-7.76-12.46,10.87-7.13,15-9.27,7.59,2.14,12.08-5.17S743,316,746,313.9s18.8-16.93,24.49-21.56,15.27-24.23,16.31-30.37,5.69-21,6-25.12.43-24.31-.6-28.68-3.37-7.57-4.06-3.3A74.07,74.07,0,0,0,787,215.3c0,2.4-.52,8.9-.52,8.9s-3.71-7.48-4.4-9-5.26-10.07-6.72-10.69-3.37-.09-3.37,2.14,2.94,8.72,4.23,11.57a84.76,84.76,0,0,1,3.1,8.46c.09.45.35,7.58.52,8.2l.17.62a56.19,56.19,0,0,1-4.48-4.18c-.35-.62-12.42-14.79-13.72-15.5s-3.53-.53-3.53,1.78,4.4,8,7.5,11.58,6.82,8.73,7,10.16.86,4.54.17,4.8-6.3-1.6-8.11-3.92-6.21-7.21-7.76-7-2.68.53-2.5,2.31,4.91,8.64,8.88,11.58,4.92,5.7,4.92,5.7-.69,7.13-1.73,8.91-11.56,3.92-12.16,6.23-1.12,4.19-5.61,5.35-14.23,7.93-15.61,11.22-4.74,5.88-6.56,7-13.89,6-15.18,7.23-6.81,4.18-6.81,4.18l-6.73,1.87a17.36,17.36,0,0,1-8-5.34c-3.2-4-4.57-9.09-9.41-12.92s-5.86-2.23-5.86-6.23-3.45-18.08-4.49-20.85-4.74-8.37-6.64-9.53S660,242,658.68,239.52s-8.28-13.44-14.75-16.74S632.37,216.54,622.45,217.53Z"/></g></g></symbol><symbol id="families" viewBox="0 0 100 100">
<title>ISD Families</title>
<g id="familiy_3"> 
	<g id="family">
		<path d="M53.2,43.1c0.1-0.7,0.2-1.4,0.2-2.1c0-0.5,0-1.1,0.1-1.6c0,0,0.8-0.7,0.8-1.7s-0.3-1.1-0.3-1.1s0.5-2.1-0.4-4
			s-2.7-2.9-4.9-2.9c-2.2,0-4.9,1.5-5.2,4.6C43,37.4,44,37.8,44,37.8s0.3,2.4,0.8,3.3c0.4,0.8,0.9,0.8,1.3,1.4
			c0.2,0.3,0.6,0.6,1,0.6c0,0,0.1,0.4,0.2,0.7l0.1,0.3c0,0-0.6-0.2-1,0.1c-0.3,0.2-0.3,0.4-0.4,0.6c-0.2,0.1-0.8,0.1-0.9,0.4
			s-0.1,0.6-0.1,0.6s-1.2,0.5-1.8,1.1c-0.6,0.6-1.1,1.4-1.7,1.8s-1,0.8-1.3,1.3c-0.2,0.5-0.2,0.5-1.4,1.3s-2.3,1.4-3.2,1.6
			c-0.9,0.2-2,0.2-2.1,0.4c-0.1,0.2-0.1,0.4-0.1,0.6c0,0-2.5,0.6-3.4,0.6c-0.8,0-2.2,0-2.9,0c-0.7-0.1-2.6-0.4-2.8-0.1
			c-0.2,0.3,0.1,0.6,0.1,0.6s-0.3,0.5-0.2,0.8s0.3,0.3,0.3,0.3s-0.6,0.4-0.1,0.8c0.4,0.3,0.6,0.1,0.6,0.1s-0.4,0.7,0,0.9
			c0.4,0.3,1.2,0.4,2,0c0.8-0.4,1.7-0.5,2.7-0.5s4.6-0.4,4.6-0.4s0.3,0.8,0.6,0.8c0.3,0,2.9-0.9,3.5-1s1.9,0,3.4-1s3.3-2.3,3.3-2.3
			s0,1.4,0.1,3c0.1,1.6,0.8,1.6,0.3,3.3c-0.4,1.7-0.6,2.1-0.5,3.7c0.1,1.6,0.3,1.5,0,4s-1,4.3-0.9,4.4c0.1,0.1,0.2,0.1,0.3,0.1
			c0,0-0.8,1.6-1.1,2.6c-0.3,1-0.7,1.4-1.2,2.9c-0.4,1.1-0.7,2.2-0.7,3.4c-0.1,0.8-1.2,2.5-2.2,5.1c-1.1,2.6-3,4.7-3.3,5.3
			c-0.3,0.6-0.7,0.7-0.5,0.9c0.1,0.2,0.3,0.3,0.4,0.4c0,0-1.3,0-2.4-0.1c-1.1-0.1-1.9-0.2-2.3,0.8c-0.3,0.9,0.9,1.8,2.8,2.5
			c1.9,0.7,2.5,0.3,3.7,0.9s2.3,1.2,3.3,1.2c1,0,1.5-0.3,1.7-1.1c0.1-0.4,0.1-0.9-0.1-1.3c0,0,0.5-0.3,0.7-1.4
			c0.2-1.1,0.2-2.4,0.9-3.8c0.6-1.4,2.8-5.4,2.8-6.6s0.4-1.7,1.4-3.2s4.2-6.6,4.2-6.6s2.1,4.7,2.6,5.7s1,1.3,1.3,1.7
			c0.3,0.4,0.2,1.2,0.8,1.9c0.6,0.7,2.6,2.2,3.1,4.2c0.5,2,0.4,3,0.9,4.2c0.5,1.2,0.5,0.9,0.3,1.4c-0.2,0.5-0.2,0.7-0.2,0.7
			c-0.7,0.4-1.5,0.7-2.2,1.1c-0.9,0.3-1.3,1-1.1,1.5c0.2,0.5,1.7,0.8,3.5,0.7c1.8-0.1,2.5-0.6,3.3-1s1.8-0.4,2.6-0.9
			c0.8-0.5,2.7-1.2,2.5-1.9c-0.1-0.7-0.4-1.1-0.8-1.6c-0.4-0.5-0.7-0.5-0.7-0.5c0-0.4-0.1-0.8-0.3-1.2c-0.3-0.6-0.5-2.2-1.2-3.2
			c-0.7-1-0.8-2.6-2.7-4.9c-1.9-2.3-1.8-3.2-2.4-4s-0.7-2-1.3-3.6c-0.6-1.5-0.9-1.6-0.9-2.3c0-0.3,0-0.7-0.1-1c0,0,2.4-0.3,2.4-0.6
			c0-0.4-0.6-3.4-1.4-4.8c-0.8-1.4-1.4-3.1-1.7-5.2s-0.8-5.8-0.8-5.8s3,2.1,3.8,3.3c0.9,1.2,2.9,2.9,3.3,3.6
			c0.5,0.7,1.3,0.3,1.3,0.3s0.6,1.1,0.6,1.8c-0.1,0.7,0.6,1.5,1,2s0.9,0.4,0.9,0.1c0-0.3-0.7-1.5-0.7-2s-0.1-0.8,0-0.6
			s1.5,1.1,1.8,1.4c0.4,0.3,1.4,0.7,1.6,0.5c0.1-0.1,0.1-0.3,0-0.4c0,0,0.4,0.1,0.5-0.3c0.1-0.3-0.1-0.4-0.1-0.4s0.3-0.2,0.3-0.4
			c0-0.1-0.1-0.2-0.1-0.3c0,0,0.3-0.3,0.2-0.7c-0.1-0.3-0.4-0.6-0.9-0.9c-0.5-0.3-1.4-1-1.9-1.1c-0.4-0.1-0.7,0.1-1.1-0.4
			c-0.2-0.2-0.3-0.5-0.5-0.7c0.1-0.3,0-0.7-0.2-1c-0.3-0.6-1.4-1.6-2.1-2.5c-0.7-0.9-1.7-2.5-2.5-3.3c-0.8-0.8-1.2-0.7-1.8-1.6
			C60.8,50,59,48.2,59,48.2s0.2-0.9-0.2-1.3c-0.4-0.3-1-0.6-1.4-1.6c-0.4-1-2.1-2-2.5-2.1C54.5,43.1,53.2,43.1,53.2,43.1z"/>
		<path d="M98,53.9c0,0,0-2.8-0.3-5.5c-0.3-2.7-0.4-3.5-1.4-4.9c-1-1.5-3-4.5-4.1-5.7c-1.1-1.2-2-1.7-2-1.7s-1.3-0.9-1.4-1
			s-0.7-0.3-0.8-0.9c-0.1-0.7,0-1-0.1-1.4c-0.1-0.3-0.2-0.5-0.5-0.6c0,0,0.3-0.5,0.2-0.9c0-0.2-0.2-0.4-0.3-0.6
			c0.3-0.2,0.4-0.6,0.2-0.9c-0.2-0.6-0.5-0.6-0.5-0.6s0.2-0.6,0-1c-0.2-0.3-0.3-0.6-0.5-0.9c0,0,0.1-0.4-0.2-1.3
			c-0.3-0.9-1.2-2.6-2.3-3.3c-1.1-0.8-1.6-0.3-1.6-0.3s-2.7-0.7-4.4,0.3c-1.7,1-2.2,2.7-2.2,3.5c0.1,0.8,0.4,0.8,0.4,0.8
			s-0.1,1.3,0.1,1.8c0.3,0.6,0.4,1.2,0.3,1.9c-0.1,0.8,0,1.9,0.7,2.6c0.7,0.7,1.2,1.6,1.8,1.8s1.6,0,1.6,0l0.4,0.6
			c0,0-2.7,1.5-3.3,2.2s0,1.3,0,1.3s0.2,0.8-0.6,2c-0.8,1.2-0.8,2-0.6,2.6c0.2,0.6,0,0.8,0,0.8c-0.3,0.7-0.5,1.5-0.6,2.2
			c-0.2,0.9-0.8,2.7-1.9,4.4c-1.1,1.7-2.2,5.2-2.8,5.9c-0.5,0.7-0.3,1-0.3,1s-0.8,1.2-1.4,1.7c-0.6,0.5-1.4,1-1.4,1.4
			s-1.4,2.7-0.4,3.5c1,0.8,0.8,0.3,0.8,0.3s0.5,0.4,0.8,0.4c0.2-0.1,0.3-0.3,0.3-0.3s0.2,0.5,0.7,0.4c0.5-0.1,0.7-0.4,1.2-1.6
			c0.4-1.2,0-1.6,0.8-2.9c0.8-1.3,1.3-1.8,1.3-1.8s1.4,0.7,1.9,0.8c0.3,0.1,0.5-0.1,0.7-0.3c0,0-0.1,3.1-0.1,3.8
			c0,0.9-0.2,1.7-0.4,2.5c-0.2,0.7,0.9,0.2,0.9,0.2s-0.7,2.2-1.3,3.5c-0.6,1.3-1.6,2.8-1.3,4.4c0.3,1.6,1.2,2.4,2.2,3.9
			s1.7,2.7,1.7,2.7s-0.5,0.5-0.4,0.8c0.1,0.3,2.2,4.3,2.8,5.3c0.6,0.9,1.6,1.9,0.9,3.5c-0.6,1.6-1.9,3.3-2.7,3.7
			c-0.8,0.4-2.8,0.9-2.5,1.8s3.2,0.6,4.4,0.5c1.2-0.1,3.7-1.1,4.1-1.2c0.4-0.1,0.6,0.7,1.1,0.7s3.6-0.7,3.8-1l0.2-0.3
			c0,0,0.6-0.1,0.7-0.2c0-0.1-0.1-1.2-0.4-1.7c-0.1-0.3-0.3-0.6-0.5-0.8c0,0-0.2-2.1-0.2-3.4s0.2-5.9,0.2-6.6c0-0.7-0.3-0.6-0.7-0.6
			h-0.4c-0.2-1.2-0.5-2.3-1-3.4c-0.7-1.6-0.9-1.6-0.9-2.7c0-1.1-0.3-3.3,0.4-5.5c0.4-1.3,0.5-2.8,0.2-4.1c0,0,0.5-0.1,1.3-0.7
			c0.7-0.6,0.9-1,0.9-1s1.3-0.2,1.7-0.6c0.2-0.2,0.4-0.3,0.6-0.4c0,0,1.8,0.4,3.3-0.3c1.5-0.7,1.6-1.2,1.6-1.2s1.1,0,1.3-0.2
			c0.2-0.2,0.6-1.3,0.8-2.5s0.5-2.4,0.7-3.1C99.1,54.8,98,53.9,98,53.9z M81,75.8c0,0-0.5-0.5-0.8-1c-0.3-0.5-0.4-0.7-0.2-1.3
			s0.5-1.6,0.5-1.6c0,0.6,0.1,1.1,0.2,1.6C80.9,74.6,81,75.8,81,75.8z"/>
		<path d="M25.5,17.1c-0.2-0.2-0.3-0.7,0.1-1.5c0.4-0.8,0.2-1.3,0.2-1.3s0.9,0,0.5,0.7c0,0.1,0.8,0,1.1-0.6c0.3-0.6,0.2-0.7,0.2-0.7
			c0.2,0.1,0.4,0.2,0.6,0.1c0.8-0.1,0.8-0.7,0.8-0.7s-0.4,0.2-0.6,0c-0.2-0.2-0.5-0.6-0.2-1.1c0.2-0.5,0.5-0.9,0.1-2.5
			c-0.3-1.1-0.7-2.1-1.4-3c-0.8-1.1-2.3-3.3-4.2-4s-5.1,0-6.7,0.5s-2.4,2.1-2.3,3.7c0.1,1.6,0.6,2,0.6,2s-0.1,0.6,0.1,0.9
			s-0.1,0.9-0.3,1.3c-0.2,0.5-0.8,1.1-0.7,1.4c0.1,0.3,0.7,0.2,0.7,0.5c0,0.3,0.1,0.6-0.1,0.9c-0.2,0.3,0.3,0.6,0.6,0.6h0.2
			c0,0-0.8,0.3-0.5,0.6c0.2,0.3,0.3,0.7,0.2,1.1c-0.1,0.3,0.1,0.8,0.9,1.1c0.6,0.2,1.2,0.3,1.8,0.3c0,0-1.7,1-1.6,1.6
			c0.1,0.6,0.6,0.9,0.5,2.8c0,2,0.1,3.9-1.1,5.9s-1.6,4-1.2,6.1c0.4,2.1,0.6,4.4,0.6,6.8c0,2.4-0.6,3.8,0.1,6.7s1.2,5.6,1.2,5.6
			c-0.6,2.8-1.3,5.6-2.2,8.4c-1.4,4.1-3.1,8.8-3,10c0.1,1.2,0.3,2.5-0.2,4.6C9.8,78,8.4,85.3,7.9,86.6c-0.5,1.3-4,4.3-4.2,4.5
			c-0.2,0.2,0.3,0.8,0.6,1c0.3,0.2-0.5,0.3-1.4,0.3c-0.8,0.1-2,0.3-2,1.1c0,0.8,0.4,1.2,1.9,1.5c1.5,0.3,3.8,0.3,4.7,0.6
			c0.9,0.2,4.7,0.7,5.9,0.5s1.3-1.2,1.3-1.2c0.1-0.7,0.1-1.4,0.1-2.1c-0.1-0.9-0.7-2.2,0.2-3.7s1.4-3.6,2.2-6c0.8-2.4,2.7-6.5,3-9
			c0.3-2.5,0.8-3.6,1.5-5.3c0.7-1.7,2-4.9,2-4.9s3.6,6.1,4.6,8.2c1,2.1,3.3,5.7,5.4,8.8s3.9,7.7,4.4,9.1c0.5,1.3,1.3,1.6,1.3,1.6
			s-3.4,1.3-2.7,2.6c0.8,1.3,4.3,0.7,5.5,0.2c1.1-0.5,3-1.5,3.7-1.7c0.7-0.2,3.1-1.4,3-2.3c0-0.9-1-1.8-1-1.8s0.7-0.8,0.4-1.3
			s-0.7-1.3-1.9-3.5s-2.8-6.7-3.7-8.5s-3-4.3-4.3-6.1c-1.3-1.7-1.1-2.8-2.3-4.1c-1.2-1.3-1.5-3.8-2.1-5.4s-0.9-4.6-0.8-6.4
			c0.1-1.8,0.2-2.3,0.2-2.3s4.7-0.7,6.1-2.5c1.3-1.8,0.7-3.1,1-6.1c0.3-3,0.5-8.6,0.4-10.5c-0.1-1.9-2.2-2-2.2-2s-0.1-1.4-0.9-1.8
			c-0.8-0.5-1.3-0.3-2.3-0.9c-1-0.5-2.6-1.8-2.6-1.8s-1-3.2-3.5-5.4s-3.2-1.9-3.2-1.9L25.5,17.1z"/>
	</g>
</g>
</symbol><symbol id="learning-icon-reverse" viewBox="0 0 100 100"><title>learning-icon</title><g id="apple-disc-reverse-export"><path d="M50.05,24.53C49.42,17.86,55,17,53.84,14.86a1.49,1.49,0,0,0-1.7-.76c-2.6.4-5.89,6.22-4.3,10.6C48.52,26.56,50.17,25.86,50.05,24.53ZM39.41,18.9c.84,1.44,2.93,2.5,4.81,3,1,.24,2.15-.34,1.31-1.65-1.42-2.19-2.59-4.73-4.62-4.35a2.09,2.09,0,0,0-1.5,3Zm-8,46.16H64.93a.73.73,0,0,0,0-1.46H31.44a.73.73,0,1,0,0,1.46Zm46.79,4.67a2.15,2.15,0,0,0,0-.8A3,3,0,0,0,77,66.88a6.49,6.49,0,0,1-.66-.73,4.6,4.6,0,0,1-1-3V63a4.49,4.49,0,0,1,1-3,7.73,7.73,0,0,1,.67-.73,3,3,0,0,0,1.31-2.06,2,2,0,0,0-.45-1.63,1.78,1.78,0,0,0-1.35-.61H55.13c2.61-.57,5.35-2.47,7.51-6.58,2.94-5.6,4.32-13.79,1.42-18.72a9.24,9.24,0,0,0-12.65-3,4.52,4.52,0,0,1-4.94,0,9.25,9.25,0,0,0-12.66,3c-2.9,4.93-1.52,13.12,1.42,18.72,2.16,4.11,4.9,6,7.52,6.58H28.23c-4,0-8.43,3.48-8.43,8.13a8.09,8.09,0,0,0,3.84,6.66H15.83a1.74,1.74,0,0,0-1.35.6A2,2,0,0,0,14,71.93,3,3,0,0,0,15.34,74a7.73,7.73,0,0,1,.67.73,4.49,4.49,0,0,1,1,3v.18a4.49,4.49,0,0,1-1,3,7.63,7.63,0,0,1-.66.73A3,3,0,0,0,14,83.71a2,2,0,0,0,.44,1.63,1.78,1.78,0,0,0,1.36.6H77.57c4,0,8.43-3.47,8.43-8.12C86,73.42,82,70.08,78.23,69.73ZM47.46,54.59a4.3,4.3,0,0,1,3,0,8.18,8.18,0,0,0,1.13.32H46.33A8.18,8.18,0,0,0,47.46,54.59Zm-21.24,5.9a5,5,0,0,1,3.41-1.1H74.88a5.57,5.57,0,0,0-.65,1.26H41.18a.74.74,0,1,0,0,1.47H73.87a5.43,5.43,0,0,0,0,.9v0a6,6,0,0,0,1,3.63H29.62c-2.73,0-4.5-1.43-4.5-3.65A3.31,3.31,0,0,1,26.22,60.49Zm50,21H17.41a5.86,5.86,0,0,0,1-3.65h0c0-.19,0-.39,0-.59H51.11a.74.74,0,0,0,0-1.47H18.18a6.08,6.08,0,0,0-.77-1.58H76.18a5,5,0,0,1,3.41,1.1,3.31,3.31,0,0,1,1.1,2.55C80.69,80,78.92,81.48,76.19,81.48Zm-2.9-2.64H39.8a.74.74,0,0,0,0,1.47H73.29a.74.74,0,0,0,0-1.47Z"/></g></symbol><symbol id="pupil-experience-reverse" viewBox="0 0 100 100"><title>pupil-experience-reverse</title><g id="pupil-experience-path"><path id="girls" d="M95.49,10.78c-.17-.71-.55-1.23-.66-.53a12.07,12.07,0,0,0-.18,1.68c0,.39-.09,1.45-.09,1.45s-.6-1.22-.71-1.46a7.37,7.37,0,0,0-1.09-1.73.37.37,0,0,0-.54.35,8.09,8.09,0,0,0,.68,1.87c.21.46.49,1.3.51,1.37s0,1.22.08,1.33l0,.1s-.67-.58-.73-.68-2-2.39-2.22-2.51-.57-.09-.57.29a5.26,5.26,0,0,0,1.21,1.87,6.21,6.21,0,0,1,1.13,1.65c0,.23.14.73,0,.78A2.36,2.36,0,0,1,91.06,16c-.29-.37-1-1.17-1.26-1.14s-.43.09-.4.38a4.71,4.71,0,0,0,1.44,1.87,2.23,2.23,0,0,1,.79.92,6.35,6.35,0,0,1-.28,1.45c-.17.28-1.87.63-2,1s-.18.67-.9.86A5.66,5.66,0,0,0,86,23.14a3,3,0,0,1-1.06,1.14c-.3.18-2.25,1-2.46,1.17a8.71,8.71,0,0,1-1.11.67l-1.08.31a2.79,2.79,0,0,1-1.3-.87c-.52-.65-.74-1.47-1.53-2.09s-1-.36-1-1a18.85,18.85,0,0,0-.72-3.37,4.55,4.55,0,0,0-1.08-1.55c-.3-.18-.57-1.28-.78-1.68a7.87,7.87,0,0,0-2.39-2.71A5.43,5.43,0,0,0,68,12.29s-3.23.83-3.69,1.86-1.59,2.51-1.59,3.12-.55.78-.59,2a4.39,4.39,0,0,1-.7,2.68c-.5.7-.19,1-.53,1.1a7.85,7.85,0,0,0-.87.52.92.92,0,0,1-.64-.4c-.25-.38-.5-.29-.84-1.3a28.66,28.66,0,0,0-1.34-3.12c-.39-.8-.39-.34-.53-1.38s.11-1.1-.39-1.33a5.18,5.18,0,0,1-1-.63s-.11-2.6-.41-2.71a6,6,0,0,0-1-.2s-.7-.32-.25-1.42a7.6,7.6,0,0,0,.59-2.65c0-.52.53-1.18,1-1s1.18.17,1-.23-.2-.49-.47-.58a2.25,2.25,0,0,0-.55-.08c.1,0,.27-.09.13-.52a.88.88,0,0,0-1.07-.67,10.8,10.8,0,0,0-1.28.2,13.21,13.21,0,0,1,1.31-1.7c.56-.55,1.54-1.84,1.46-2.13s-.7-.35-1.32.4-2.2,2.11-2.34,2.4a1.31,1.31,0,0,1-.34.43s-.45.23-.81-.58a18,18,0,0,0-2.18-3c-.42-.46-1.14-.55-1-.08s.92,1.12,1.31,1.9a17.24,17.24,0,0,1,1,2.74,15.43,15.43,0,0,1,.11,2.68,16.73,16.73,0,0,0,.12,3.61l.22.54-.42.18s.48,2.54.59,4.12-.06,2,.58,2.91a15,15,0,0,1,1.29,2.6c.45.95,2.54,5,2.57,5.31s-.9.29-.36,1.41,1.73,1.82,1,2.68-1.59,1.3-1.87.67a2.69,2.69,0,0,1-.25-1.13,1.07,1.07,0,0,0-.2,1.38,1.87,1.87,0,0,0,1.34.9c.11,0-.95.69-.72,1.15l.22.46a.52.52,0,0,1,.05-.6c.26-.26,1.46-.46,1.62-.92s.4,1.73-.47,2-1.4.46-1.4.46a1.33,1.33,0,0,0,1.46.37,2.39,2.39,0,0,0,1.34-1.18,12.47,12.47,0,0,0,.69-1.67A5.9,5.9,0,0,0,58,35.45c.31.87.36,1.3,0,1.59s.75-.17.75-.92.14-.21.53.31a2.79,2.79,0,0,0,1.2.78,1.93,1.93,0,0,1-.69-1c-.12-.57.61.38.69.44s-.14-.81-.14-1a3.94,3.94,0,0,1,.56,1.5C61,37.82,62,39.78,62,41.6s-1.06,5-1.43,6.46c-.31,1.27-.67,4.58-.3,5.71s-.17,5.5-.28,6.4a54.85,54.85,0,0,0-.09,7.47,55.1,55.1,0,0,1,.76,6.57c-.09,1.19-.62,6.29-.62,7.47,0,.44,0,1.12,0,1.82a13.44,13.44,0,0,1-1-1.82,28.26,28.26,0,0,0-3.76-5.22c-1.6-2-4.68-5.38-4.8-5.59s.45-.54.66-1.27a3.3,3.3,0,0,0,0-2.78,17.15,17.15,0,0,1-1.55-2.68.24.24,0,0,0,.33-.26,1.52,1.52,0,0,0-.26-1c-.26-.47-.47-1.27-.71-1.83s0-.81-.09-1.51A29.81,29.81,0,0,0,47.73,54c-.62-1.81-1.11-2.44-1.11-2.8A66.9,66.9,0,0,0,44,43.94a8.86,8.86,0,0,0-3.08-3.17l-.92-.4L40,40s.3,0,.47,0,.56-.07.44-.61a1.53,1.53,0,0,1,0-1.15c.19-.54.3-.82.66-.92a5.63,5.63,0,0,0,2.58-2.33A4,4,0,0,0,44.63,32,11.72,11.72,0,0,0,44,28.89,10.11,10.11,0,0,0,40.45,25c-1.15-.56-2.48-1.68-4-1.64a6.31,6.31,0,0,0-2.35.32c-.17.11-.14-.05-.4-.19s-.4-.05-.4-.05.26-.23.19-.33-.4-.11-.4-.11.23-.19.23-.29-.27-.17-.36-.14a1.62,1.62,0,0,0,.64-.47,4.25,4.25,0,0,0,.73-2c-.09-.62-.31-1.4-.69-1.56s-3.75-.48-3.91,1.06A4.23,4.23,0,0,0,30,21.69c.1.17.82.46,1.1.71s-.1.43.35.69,0,.3.28.42-.58.19,0,.35S29.44,25.63,29.13,26s-1.71,2.94-1.43,4.63.23,3.46,1.22,4.15A2.4,2.4,0,0,1,30,37a5.49,5.49,0,0,1-2.32,2.47A16.71,16.71,0,0,0,24,41.76a10.78,10.78,0,0,0-3.48,5.87A53.21,53.21,0,0,1,18.76,56c-.59,1.53-.61,1.76-1,2.7s-.9,3.13-1.23,3.81-1,.54-.56,1l.66.69s-.9,1.22-1.34,1.85S13.75,68.21,13.87,69A4.71,4.71,0,0,0,15,71a.38.38,0,0,0,.57,0,2.1,2.1,0,0,0,.16-.32s.35,0,.42-.08a.74.74,0,0,0,.07-.32.79.79,0,0,0-.09-.55,6,6,0,0,1-.4-.84,2.93,2.93,0,0,1,.71-1.13,7.2,7.2,0,0,1,1.12-.66,9.06,9.06,0,0,1-.14,1.58c-.11.33.17,1.24.45,1.15s.54-.78.54-1.08a7.53,7.53,0,0,1,.4-1.7,5.68,5.68,0,0,0,.38-1.59c0-.29.49-.17.91-.5s1-.26.85-.7.12-.52,0-1.09,1-1,1-1.62,1.77-3.31,1.79-4.3a3.78,3.78,0,0,1,.38-1.81c.35-1.13,1.43-4.85,1.43-4.85s1.67,5.48,1.67,6.09.8,2.92.5,4.05-.71,1-.43,1.39.47.4.14.65-.54.22-.54.5.07.73.07.85-2.47,2.7-3.52,4-3.86,5.9-4.66,6.7A9.12,9.12,0,0,0,17.28,77l-3.76,6.25A6.22,6.22,0,0,0,12.76,85a.6.6,0,0,1-.28.57A3.09,3.09,0,0,1,11.94,87c-.4.42-.61.78-.75.92a2.64,2.64,0,0,1-.89.61c-.31.07-1.56,1.36-2,1.64a33.48,33.48,0,0,1-2.9,2,1.72,1.72,0,0,0-1,1.92c.26.87,1.72,1.23,3.08,1.09a9.87,9.87,0,0,0,3.32-.85c.42-.31-.22-.38,1.05-.52s3-.12,3.39-1.67.09-1.78-.07-2.14,2.42-3.62,2.87-4.25.7-.85,1.43-1.79A75.1,75.1,0,0,1,25,78.08c1-.79,4.21-3.94,5.67-4.41A15.8,15.8,0,0,1,36.84,73a19.51,19.51,0,0,1,5.72,2.42c2.49,1.46,8.2,5.11,9.38,6.09A46.81,46.81,0,0,1,55,85.12a29.48,29.48,0,0,1,3.5,3.62c.16.51-.17.35.21.7a4.42,4.42,0,0,1,.56.68,2,2,0,0,1,.29.47,4.42,4.42,0,0,0,0,2.12c-.44,1.37-.95,2.7-1,2.87-.17.35-.45,2.2,1.25,2.46s3-.24,3.66-2.46c.07-.22.13-.42.2-.63a5.24,5.24,0,0,0,1.12.58,5,5,0,0,0,3-.35c.54-.31,1.34-2.07.23-2.8s-1.93-.89-2.14-1.15-.53-.64-.85-1.11c0-.29,0-.56,0-.79,0-.52-.22.28,0-.87s-.5-1.12.2-1.38.36-1.1.3-1.42a19.53,19.53,0,0,1,.48-3.17c.08,0,0-.69.17-1.56s.61-3.66.72-4.15.73-4.09.73-4.67.81-4.36.81-4.36.53,3.84.53,4.33.36,6.57.42,8.62-1.06,4.65-.2,5.71-.5.58-.33,1-.25.35,0,1A2.2,2.2,0,0,1,69,89.64,29.62,29.62,0,0,0,69.72,94a19.55,19.55,0,0,0,2.62,4.38c.54.4,4.25,1.1,4.72,0A1.85,1.85,0,0,0,76.65,96a9.85,9.85,0,0,1-1.9-2,11.8,11.8,0,0,1-.9-2.16A5.6,5.6,0,0,1,73.66,90c.08-.26.22.12.42-.58a2.25,2.25,0,0,0,0-1.21c0-.17.78-5.54,1-6.69a39.76,39.76,0,0,0,.16-5.33c0-.75.65-3.81.65-4.71a15.61,15.61,0,0,1,.3-2.13c.09-.75.78-7.38.78-8.42s1.07-6.75,1.07-6.75a2.57,2.57,0,0,0,.44-1,2.68,2.68,0,0,0,.09-1.53c-.09-.29.71-1.38.49-2.39s.09-1.24-.21-2.14a60.45,60.45,0,0,1-.53-7.5c0-.92.39-1.06.3-.43l-.08.64a5.56,5.56,0,0,0,.5-1.94c0-.77,0-1.26,0-1.26a5.69,5.69,0,0,0,1.09,1.9c.51.32,1.82.35,1.87-.26a1.23,1.23,0,0,0-.22-.92s.17.46,0,.6-.28.52-.56.06a7.48,7.48,0,0,1-.58-1c0-.09.55.23.58.32s.11.17.11-.35-.19-.2-.3-.87.75.67,1.2,1a3.25,3.25,0,0,0,.84.43s-.42-.15-.81-1a2.38,2.38,0,0,1-.23-1.5l0-.32s1,.84.81,1.21,0,.38,0,.38.7-.23.42-1.3a5.19,5.19,0,0,0-1.26-2s1.76-1.15,2.43-1.5,1.23.35,2-.84S87.54,28.24,88,27.9s3-2.74,4-3.49a13.56,13.56,0,0,0,2.64-4.92c.17-1,.92-3.4,1-4.07A34.39,34.39,0,0,0,95.49,10.78Z"/></g></symbol><symbol id="pupil-experience" viewBox="0 0 956 951"><title>pupil-experience</title><path d="M873.05,121.13Q795.4,50,684.14,50,536.94,50,479,175.93,421.07,50,273.86,50,162.6,50,85,121.13,3.81,195.76,3.82,305.35C3.82,641.63,455.8,893,479,900c23.2-7,475.18-258.37,475.18-594.65Q954.18,195.75,873.05,121.13ZM792.73,236.85c-.26,4.1-4.92,19-6,25.12s-10.61,25.74-16.31,30.37S748.91,311.76,746,313.9s-5.18,10-9.66,17.27-7.94,3-12.08,5.17-15,9.27-15,9.27,6,5.87,7.76,12.46-2.59,8-2.59,8-1,0,.18-2.32-5-7.48-5-7.48l-.17,2a15,15,0,0,0,1.38,9.27c2.42,5.16,5,6.05,5,6.05a19.45,19.45,0,0,1-5.17-2.67c-2.76-2-8.11-10.16-7.42-6.06s1.9,2.14,1.9,5.35-.52,2.67-.69,2.13-3.63-2.49-3.63-2,1.9,3.21,3.63,6.06,2.41.54,3.45-.35,0-3.75,0-3.75a7.89,7.89,0,0,1,1.38,5.71c-.35,3.74-8.46,3.56-11.56,1.6s-6.73-11.76-6.73-11.76,0,3,.17,7.84-3.1,11.94-3.1,11.94l.52-3.93c.51-3.91-1.9-3-1.9,2.68s1.38,40.79,3.28,46.31-.09,7,1.29,13.21-3.54,13-3,14.76.86,5-.52,9.44S684.9,476,684.9,476s-6.55,35.27-6.55,41.68-4.32,47.39-4.84,52-1.89,7.66-1.89,13.18-4,24.4-4,29,.52,25.83-1,33-6.55,40.26-6.38,41.33a13.87,13.87,0,0,1-.35,7.48c-1.2,4.28-2.06,2-2.58,3.57s.34,8.37,1.2,11.4A73.21,73.21,0,0,0,664,722c2.42,4.27,7.77,9.08,11.74,12.64s5.52,8,2.59,14.79-25.88,2.49-29.16,0S634.52,727.35,633,722.36s-5-24.76-4.66-27.07.87-4.46-.52-8.2,1.21-3.56.18-5.88,7.42.72,2.07-5.88,1.55-22.62,1.21-35.26-2.59-50.24-2.59-53.27-3.28-26.72-3.28-26.72-5,23.34-5,26.9-3.8,25.83-4.49,28.85-3.62,20.32-4.48,25.66-.52,9.62-1,9.62-3.28,17.63-2.93,19.6,2.41,7.12-1.9,8.72.17,1.43-1.21,8.55,0,2.14,0,5.35a48.85,48.85,0,0,1-.33,4.93c2,2.9,4.1,5.39,5.27,6.82,1.31,1.61,6.39,2.62,13.22,7.12s1.89,15.4-1.45,17.28-13.37,3.93-18.59,2.19a36.29,36.29,0,0,1-6.93-3.61c-.4,1.27-.8,2.56-1.19,3.92-4,13.72-12.08,16.75-22.61,15.15s-8.79-13-7.76-15.15c.51-1.05,3.64-9.3,6.38-17.77-2-4.22-.14-13.05-.14-13.05a12.23,12.23,0,0,0-1.74-2.9c-1-1.16-1.16-2-3.49-4.21s-.29-1.16-1.3-4.36-18.3-19.32-21.64-22.37S530.41,651.06,523.14,645s-42.55-28.61-57.94-37.62-26-12.93-35.3-15S401,593.69,392,596.6s-28.9,22.36-35,27.3-29.63,29.92-34.13,35.72-6.1,7.12-8.86,11-18.74,24.1-17.72,26.28,2.61,3.63.43,13.22-13.07,9.44-20.91,10.31-3.92,1.31-6.53,3.2-12.06,4.35-20.48,5.23-17.43-1.31-19-6.69,2.76-10.75,6-11.91,15.11-10.31,17.87-12,10.46-9.73,12.35-10.17,4.64-2.9,5.51-3.78,2.18-3,4.65-5.66,3.34-8.42,3.34-8.42,2.18-1.31,1.75-3.49,4.64-11,4.64-11l23.24-38.63c1.75-2.9,4.21-7.84,9.15-12.78s22.23-33.11,28.76-41.4,21.79-24.25,21.79-25-.44-3.49-.44-5.23,1.31-1.45,3.34-3.05.87-1.89-.87-4.07.73-1.6,2.61-8.57-3-21.21-3-25S360,454.4,360,454.4s-6.68,23-8.86,29.92-2.18,5.09-2.32,11.18-10.89,23.1-11,26.58-7.12,6.54-6.39,10-1,3.92,0,6.68-2.62,2.32-5.23,4.35-5.81,1.31-5.67,3.05-1.3,7.41-2.32,9.88a45.34,45.34,0,0,0-2.47,10.46c0,1.88-1.59,6.1-3.34,6.68s-3.48-5.09-2.76-7.12.88-9.73.88-9.73a44.68,44.68,0,0,0-7,4.07c-2.61,2-4.35,7-4.35,7a35,35,0,0,0,2.47,5.23,4.66,4.66,0,0,1,.58,3.34,4.84,4.84,0,0,1-.44,2c-.43.73-2.61.44-2.61.44a11.93,11.93,0,0,1-1,2c-.58.87-2.18,1-3.49-.15s-5.95-7.54-6.68-12.49,6.25-14.08,9-18,8.28-11.47,8.28-11.47-1.31-1.31-4.07-4.21,1.45-2,3.48-6.24,5.38-17.73,7.56-23.54,2.32-7.26,5.95-16.7,8.43-34.27,10.89-51.85S346.24,403,350.6,399.5s16-12.05,22.8-14.38,13.51-12.92,14.38-15.25-.72-9.58-6.82-13.8-5.76-15.15-7.5-25.6,6.92-26.54,8.8-28.57,19.32-11.91,16-12.92,2.18-1.46.29-2.18,1-1-1.74-2.62-.44-2.61-2.18-4.21-6.19-3.38-6.77-4.4-2.35-6.21-1.64-13.07c1-9.47,21.86-7.55,24.18-6.53s3.69,5.84,4.27,9.62-3.48,11-4.5,12.64c-.79,1.24-3.07,2.48-3.84,2.83.65-.07,2.1.44,2.1.94s-1.45,1.75-1.45,1.75,2,.14,2.46.72-1.16,2-1.16,2,.87-.59,2.47.29,1.45,1.88,2.47,1.16,5.35-1.64,14.5-1.93,17.39,6.64,24.51,10.13,19.68,17.75,21.57,23.85,3.06,8.17,4.25,18.95c1.2,11,.82,11.6-2.67,19.15s-13.8,13.8-16,14.38-2.91,2.32-4.07,5.67-.87,3.77-.15,7.11-1.74,3.77-2.76,3.77a27.22,27.22,0,0,1-2.9-.28l-.29,2.17s1.89.88,5.66,2.47,14.67,10.9,19,19.61,16.41,42.84,16.41,45,3,6.1,6.83,17.29,6.39,29.92,6.68,34.27-.87,5.82.58,9.3,2.76,8.43,4.36,11.33,1.59,3.78,1.59,5.95a1.51,1.51,0,0,1-2,1.6c0,1.45,5.81,10.75,9.59,16.55s1.59,12.64.29,17.14-4.8,6.54-4.07,7.85,19.75,22.37,29.63,34.57,19.75,23.81,23.24,32.24a88.2,88.2,0,0,0,6.39,11.23c0-4.35.05-8.51.05-11.23,0-7.3,3.28-38.84,3.8-46.14s-3.28-31-4.66-40.61-.17-40.62.51-46.14,4-32.6,1.73-39.55-.06-27.38,1.9-35.27c2.24-9.06,8.8-28,8.8-39.9,0-11.22-6.39-23.34-7.08-27.43S575,360.74,575,361.81s1.38,6.42.86,6.06-5-6.23-4.31-2.67,4.31,6.23,4.31,6.23-5-1.6-7.41-4.81-3.28-6.59-3.28-1.95-6.73,7.48-4.66,5.69,1.73-4.45-.17-9.79a36.71,36.71,0,0,1-2.07-9.8s-2.59,7.48-4.32,10.33-3.1,5.17-8.28,7.31-9-2.32-9-2.32,3.28-1.25,8.63-2.85,4-15.14,2.93-12.29-8.45,4.09-10,5.7a3.18,3.18,0,0,0-.45,3.52l.11.22h0a1.77,1.77,0,0,1-.11-.22l-1.27-2.63c-1.38-2.85,5.18-7.12,4.49-7.12a11.52,11.52,0,0,1-8.29-5.53c-3.1-4.81,1.21-8.55,1.21-8.55a16.7,16.7,0,0,0,1.55,7c1.73,3.92,7.25,1.24,11.56-4.1s-3.1-9.62-6.38-16.57,2.41-6.77,2.24-8.73S529.8,287,527,281.12s-4-10.33-7.94-16-2.93-8.2-3.62-18-3.62-25.47-3.62-25.47l2.59-1.07s-.52-1.25-1.38-3.38-1-11.22-.69-22.27a98.12,98.12,0,0,0-.7-16.57c0-1.24-4-12.11-6.38-16.92s-7.25-8.91-8.11-11.76,3.63-2.31,6.21.54,11.22,13.53,13.46,18.52,5,3.57,5,3.57a7.73,7.73,0,0,0,2.08-2.68c.86-1.77,10.69-10.15,14.49-14.78s7.59-4.28,8.11-2.49-5.52,9.79-9,13.18S529.45,176,529.45,176a64.59,64.59,0,0,1,7.94-1.25c3.11-.18,5.35.36,6.56,4.09.85,2.66-.11,3.16-.74,3.23a14.59,14.59,0,0,1,3.33.51c1.72.54,1.89,1.08,2.93,3.57s-3.45,2.5-6.21,1.42-6,3-6,6.24a47.5,47.5,0,0,1-3.62,16.39c-2.76,6.77,1.55,8.73,1.55,8.73a39.72,39.72,0,0,1,6.38,1.24c1.9.72,2.59,16.75,2.59,16.75a30.28,30.28,0,0,0,6,3.92c3.1,1.43,1.55,1.78,2.41,8.19s.87,3.57,3.28,8.55a180.1,180.1,0,0,1,8.28,19.24c2.07,6.24,3.63,5.7,5.18,8a5.64,5.64,0,0,0,4,2.49,40.65,40.65,0,0,1,5.34-3.2c2.08-.9.18-2.5,3.28-6.77s4.06-8.82,4.32-16.57,3.62-8.82,3.62-12.56,7-12.83,9.83-19.24,22.78-11.48,22.78-11.48c9.92-1,15,1.95,21.48,5.25s13.45,14.25,14.75,16.74,2.93,9.26,4.83,10.42,5.61,6.77,6.64,9.53,4.49,16.84,4.49,20.85,1,2.4,5.86,6.23,6.21,8.91,9.41,12.92a17.36,17.36,0,0,0,8,5.34l6.73-1.87s5.52-2.94,6.81-4.18,13.37-6.06,15.18-7.23,5.18-3.73,6.56-7,11.13-10.06,15.61-11.22,5-3,5.61-5.35,11.13-4.45,12.16-6.23,1.73-8.91,1.73-8.91-1-2.76-4.92-5.7-8.71-9.8-8.88-11.58,1-2.13,2.5-2.31,6,4.72,7.76,7,7.42,4.19,8.11,3.92,0-3.38-.17-4.8-3.88-6.6-7-10.16-7.5-9.27-7.5-11.58,2.24-2.49,3.53-1.78,13.37,14.88,13.72,15.5a56.19,56.19,0,0,0,4.48,4.18l-.17-.62c-.17-.62-.43-7.75-.52-8.2a84.76,84.76,0,0,0-3.1-8.46c-1.29-2.85-4.23-9.35-4.23-11.57s1.9-2.76,3.37-2.14,6,9.17,6.72,10.69,4.4,9,4.4,9,.52-6.5.52-8.9a74.07,74.07,0,0,1,1.12-10.43c.69-4.27,3-1.07,4.06,3.3S793,232.75,792.73,236.85Z"/></symbol></svg>